<?xml version="1.0" encoding="UTF-8"?>
<svg id="Layer_2" xmlns="http://www.w3.org/2000/svg" viewBox="0 0 1258.58 833.39">
  <defs>
    <style>
      .cls-1 {
        fill: #7c3aed;
      }
    </style>
  </defs>
  <path class="cls-1" d="M5.67,144.81v121.47c.65-.08,1.3-.15,1.96-.23,87.46-10.3,164.35,58.03,164.35,146.09v415.65h120.45v-468.87c0-71.87,54.59-132.14,126.39-138.99,66.93-6.39,121.88,45.34,121.88,112.58v495.29s120.45,0,120.45,0v-481.48c0-87.59,66-161.15,153.16-170.55,81.34-8.77,151.86,56.42,151.86,138.24v513.8s120.44,0,120.44,0V314.58c0-95.85,71.37-176.25,166.31-187.78V5.59L5.67,144.81Z"/>
</svg>