<svg width="420" height="421" viewBox="0 0 420 421" fill="none" xmlns="http://www.w3.org/2000/svg">
<rect x="0.5" y="0.73584" width="419" height="419" rx="4.5" fill="#171717"/>
<rect x="0.5" y="0.73584" width="419" height="419" rx="4.5" stroke="#D4D4D4"/>
<path d="M74 150.307V176.754C74.1401 176.739 74.2851 176.719 74.4252 176.704C93.499 174.462 110.267 189.338 110.267 208.509V299H136.534V196.923C136.534 181.278 148.439 168.154 164.096 166.661C178.693 165.268 190.674 176.534 190.674 191.171V299H216.941V194.177C216.941 175.106 231.332 159.091 250.341 157.043C268.079 155.136 283.461 169.328 283.461 187.141V299H309.728V187.27C309.728 166.402 325.29 148.899 346 146.387V120L74 150.307Z" fill="white"/>
</svg>
